# Blender 4.4.0
# www.blender.org
mtllib rubix.mtl
o Plane
v -0.500000 -0.500000 -0.000000
v 0.500000 -0.500000 -0.000000
v -0.500000 0.500000 0.000000
v 0.500000 0.500000 0.000000
v -0.296893 0.296893 0.000000
v -0.296893 -0.296893 -0.000000
v 0.296893 -0.296893 -0.000000
v 0.296893 0.296893 0.000000
vn -0.0000 -0.0000 1.0000
vt 0.203107 0.796893
vt 0.000000 0.000000
vt 0.203107 0.203107
vt 1.000000 0.000000
vt 0.796893 0.203107
vt 1.000000 1.000000
vt 0.796893 0.796893
vt 0.000000 1.000000
s 0
f 5/1/1 1/2/1 6/3/1
f 6/3/1 2/4/1 7/5/1
f 7/5/1 4/6/1 8/7/1
f 8/7/1 3/8/1 5/1/1
f 5/1/1 3/8/1 1/2/1
f 6/3/1 1/2/1 2/4/1
f 7/5/1 2/4/1 4/6/1
f 8/7/1 4/6/1 3/8/1
